<svg width="24" height="24" viewBox="0 0 24 24" fill="none" xmlns="http://www.w3.org/2000/svg">
<path d="M8.5 7.5V6.5C8.5 4.567 10.067 3 12 3V3C13.933 3 15.5 4.567 15.5 6.5V7.5" stroke="#19191C" stroke-width="1.5" stroke-linecap="round"/>
<path d="M4.74926 9.8141C4.83974 8.96656 5.62072 8.29883 6.59873 8.22578C10.619 7.92549 13.4104 7.92461 17.3984 8.22393C18.3812 8.29769 19.1632 8.97213 19.2502 9.82416C19.6012 13.2631 19.5688 15.6912 19.2378 19.1589C19.1555 20.0204 18.3682 20.7066 17.3748 20.7796C13.375 21.0736 10.587 21.0729 6.63823 20.781C5.6424 20.7074 4.8551 20.0176 4.77375 19.1539C4.45047 15.7212 4.37852 13.2871 4.74926 9.8141Z" stroke="#19191C" stroke-width="1.5"/>
<path d="M12 15.75C13.1046 15.75 14 14.8546 14 13.75C14 12.6454 13.1046 11.75 12 11.75C10.8954 11.75 10 12.6454 10 13.75C10 14.8546 10.8954 15.75 12 15.75ZM12 15.75V17.25" stroke="#19191C" stroke-width="1.5" stroke-linecap="round"/>
</svg>
