<svg width="24" height="24" viewBox="0 0 24 24" fill="none" xmlns="http://www.w3.org/2000/svg">
<path d="M15.5001 6.5C15.5001 8.433 13.9331 10 12.0001 10C10.0671 10 8.50005 8.433 8.50005 6.5C8.50005 4.567 10.0671 3 12.0001 3C13.9331 3 15.5001 4.567 15.5001 6.5Z" stroke="#19191C" stroke-width="1.5"/>
<path d="M5.42419 17.4898C5.76699 15.1147 7.60572 13.1739 9.99904 12.9995C11.3665 12.8999 12.6384 12.8997 14.0032 12.999C16.3956 13.1729 18.233 15.1137 18.5756 17.4878L18.6423 17.9495C18.8398 19.3178 17.8892 20.595 16.5146 20.7424C13.2885 21.0883 10.7222 21.0843 7.49126 20.7397C6.1145 20.5928 5.16081 19.3146 5.3586 17.9442L5.42419 17.4898Z" stroke="#19191C" stroke-width="1.5"/>
</svg>
